<svg width="43" height="53" viewBox="0 0 43 53" fill="none" xmlns="http://www.w3.org/2000/svg">
<path fill-rule="evenodd" clip-rule="evenodd" d="M31.0134 46.4736C30.5001 47.0293 29.6403 47.0551 29.0886 46.5382C28.5368 46.0212 28.5111 45.1553 29.0244 44.6125C31.2572 42.2087 33.3489 38.5384 34.4268 35.4367C34.6706 34.7259 35.4405 34.3382 36.1591 34.5838C36.8649 34.8293 37.2499 35.6047 37.0061 36.3285C35.787 39.8179 33.5414 43.7467 31.0134 46.4736ZM5.95198 28.4192C5.99048 27.6696 6.63209 27.088 7.3892 27.1268C8.13347 27.1656 8.71092 27.8118 8.67242 28.5743C8.5441 30.7842 8.76225 33.8213 9.32687 35.9666C9.51935 36.7033 9.08306 37.4528 8.35162 37.6467C7.62018 37.8405 6.87591 37.4011 6.68342 36.6645C6.05464 34.2607 5.81083 30.8876 5.95198 28.4192ZM21.325 18.1448C18.8741 13.1692 13.7027 8.63302 9.67334 4.83346C9.89149 10.843 15.4479 17.1497 21.325 18.1448ZM11.4827 2.79152C13.9978 2.54597 16.4744 3.03707 18.4506 4.70422C21.1326 6.96587 22.1078 10.7137 22.1078 14.1256C19.2077 9.86077 15.204 6.30676 11.4827 2.79152ZM5.45152 18.3775C3.2957 20.5487 2.05097 22.8749 1.44786 25.4855C0.26729 30.642 1.53768 37.8405 3.56518 42.6611C4.74575 45.4784 6.28562 47.9339 8.00515 49.9371C9.96848 52.1987 12.0986 52.9871 14.2545 53C15.9996 53.0129 17.6807 52.5218 19.259 51.9403C19.9135 52.4443 20.6449 52.8062 21.4662 52.8966C22.4286 53 23.4424 52.7545 24.4689 51.9661C26.3296 52.6252 28.0748 53.0646 29.8842 52.8191C31.9886 52.5348 34.029 51.3587 36.1848 48.606C38.2636 45.9308 40.2398 42.7257 41.523 39.1329C43.3837 33.9247 43.4864 28.1607 41.7412 22.9008C40.8686 20.2902 39.3929 17.6408 36.8777 15.8186C35.5047 14.8235 33.413 14.4874 31.0391 14.6038C29.0372 14.6942 26.7916 15.0949 24.6229 15.6764C25.0977 12.0449 26.2655 7.19849 28.7293 4.71715C29.2554 4.18727 29.2682 3.30846 28.7293 2.77859C28.2031 2.24872 27.3305 2.24872 26.8044 2.77859C25.5469 4.04511 24.5331 5.81566 23.7503 7.81883C22.9676 5.73812 21.7742 3.96757 20.1958 2.63643C16.3974 -0.594487 11.996 -0.400632 7.51752 0.814194C6.06747 6.26799 7.71 11.011 11.3159 15.1595C8.9419 15.3663 7.08122 16.7362 5.45152 18.3775ZM7.37636 20.316C5.60551 22.0995 4.59176 23.9864 4.10414 26.0929C3.06472 30.642 4.28379 37.3365 6.06747 41.5884C7.13255 44.1214 8.5056 46.3314 10.0583 48.1149C11.4185 49.6915 12.8557 50.2343 14.293 50.2473C16.1793 50.2602 18.1555 49.4331 19.9007 48.761C20.3883 49.2521 21.0941 50.0922 21.787 50.1697C22.5569 50.2602 23.3269 49.3168 23.8402 48.7998C25.5597 49.446 27.7155 50.3377 29.5505 50.0922C30.9621 49.8983 32.4121 49.0195 34.0546 46.9C35.9923 44.4187 37.8145 41.4592 38.9822 38.2024C40.6248 33.5886 40.7274 28.4192 39.1747 23.7666C38.4561 21.6213 37.2755 19.4631 35.2994 18.0285C34.4781 17.434 32.9767 17.2402 31.1674 17.3307C29.0886 17.4211 26.6761 17.8993 24.3663 18.5843C24.3021 20.0059 24.3021 21.505 24.4561 22.9137C26.6889 22.4226 28.9731 21.5309 31.1032 20.2902C31.7577 19.9154 32.5789 20.1351 32.9511 20.7942C33.3232 21.4533 33.1051 22.2804 32.4506 22.6552C27.4075 25.5889 19.5285 27.6825 14.139 24.555C13.4845 24.1802 13.2664 23.3402 13.6385 22.6811C14.0106 22.022 14.8447 21.8022 15.4992 22.177C17.1417 23.1334 19.336 23.4823 21.7613 23.3014C21.6843 22.5777 21.633 21.7893 21.6073 20.9622C19.5285 20.7296 17.5908 19.8508 15.7302 18.8944C12.227 17.111 10.1738 17.5116 7.37636 20.316Z" fill="white"/>
</svg>
