<svg width="59" height="54" viewBox="0 0 59 54" fill="none" xmlns="http://www.w3.org/2000/svg">
<path d="M52.5307 5.38202H44.8527V4.21348C44.8527 2.46067 43.3762 1 41.6044 1C39.8326 1 38.356 2.46067 38.356 4.21348V5.23595H20.7854V4.21348C20.7854 2.46067 19.3089 1 17.5371 1C15.6176 1 14.1411 2.46067 14.1411 4.21348V5.23595H6.46314C3.51009 5.23595 1 7.7191 1 10.6404V47.5955C1 50.5168 3.51009 53 6.46314 53H52.5307C55.4837 53 57.9938 50.5168 57.9938 47.5955V10.7865C58.1415 7.7191 55.6314 5.38202 52.5307 5.38202ZM40.5708 4.21348C40.5708 3.62921 41.0138 3.19101 41.6044 3.19101C42.195 3.19101 42.638 3.62921 42.638 4.21348V10.7865C42.638 11.3708 42.195 11.809 41.6044 11.809C41.0138 11.809 40.5708 11.3708 40.5708 10.7865V4.21348ZM16.3558 4.21348C16.3558 3.62921 16.7988 3.19101 17.3894 3.19101C17.98 3.19101 18.423 3.62921 18.423 4.21348V10.7865C18.423 11.3708 17.98 11.809 17.3894 11.809C16.7988 11.809 16.3558 11.3708 16.3558 10.7865V4.21348ZM55.9267 47.7416C55.9267 49.4944 54.4501 50.9551 52.6783 50.9551H6.46314C4.69131 50.9551 3.21478 49.4944 3.21478 47.7416V10.7865C3.21478 9.03371 4.69131 7.57303 6.46314 7.57303H14.1411V10.7865C14.1411 12.5393 15.6176 14 17.5371 14C19.3089 14 20.7854 12.5393 20.7854 10.7865V7.57303H38.356V10.7865C38.356 12.5393 39.8326 14 41.6044 14C43.3762 14 44.8527 12.5393 44.8527 10.7865V7.57303H52.5307C54.3025 7.57303 55.779 9.03371 55.779 10.7865V47.7416H55.9267ZM50.4635 16.191H8.67792C8.08731 16.191 7.64435 16.6292 7.64435 17.2135C7.64435 17.7978 8.08731 18.236 8.67792 18.236H50.4635C51.0541 18.236 51.4971 17.7978 51.4971 17.2135C51.4971 16.6292 51.0541 16.191 50.4635 16.191ZM19.6042 22.764H13.1075C12.5169 22.764 12.0739 23.2022 12.0739 23.7865V30.3595C12.0739 30.9438 12.5169 31.382 13.1075 31.382H19.7518C20.3425 31.382 20.7854 30.9438 20.7854 30.3595V23.7865C20.7854 23.2022 20.3425 22.764 19.6042 22.764ZM18.5706 29.191H14.1411V24.809H18.5706V29.191ZM32.8929 22.764H26.2485C25.6579 22.764 25.215 23.2022 25.215 23.7865V30.3595C25.215 30.9438 25.6579 31.382 26.2485 31.382H32.8929C33.4835 31.382 33.9265 30.9438 33.9265 30.3595V23.7865C33.9265 23.2022 33.4835 22.764 32.8929 22.764ZM31.7117 29.191H27.2821V24.809H31.7117V29.191ZM46.034 31.382C46.6246 31.382 47.0675 30.9438 47.0675 30.3595V23.7865C47.0675 23.2022 46.6246 22.764 46.034 22.764H39.3896C38.799 22.764 38.356 23.2022 38.356 23.7865V30.3595C38.356 30.9438 38.799 31.382 39.3896 31.382H46.034ZM40.5708 24.9551H45.0004V29.3371H40.5708V24.9551ZM19.6042 35.764H13.1075C12.5169 35.764 12.0739 36.2022 12.0739 36.7865V43.3595C12.0739 43.9438 12.5169 44.382 13.1075 44.382H19.7518C20.3425 44.382 20.7854 43.9438 20.7854 43.3595V36.7865C20.7854 36.2022 20.3425 35.764 19.6042 35.764ZM18.5706 42.3371H14.1411V37.9551H18.5706V42.3371ZM32.8929 35.764H26.2485C25.6579 35.764 25.215 36.2022 25.215 36.7865V43.3595C25.215 43.9438 25.6579 44.382 26.2485 44.382H32.8929C33.4835 44.382 33.9265 43.9438 33.9265 43.3595V36.7865C33.9265 36.2022 33.4835 35.764 32.8929 35.764ZM31.7117 42.3371H27.2821V37.9551H31.7117V42.3371ZM49.5776 33.8652L41.6044 41.7528L38.0607 38.2472C37.6178 37.809 36.8795 37.809 36.4366 38.2472C35.9936 38.6854 35.9936 39.4157 36.4366 39.8539L40.8661 44.236C41.0138 44.382 41.3091 44.5281 41.6044 44.5281C41.8997 44.5281 42.195 44.382 42.3427 44.236L51.0541 35.618C51.4971 35.1798 51.4971 34.4494 51.0541 34.0112C50.7588 33.427 50.0206 33.427 49.5776 33.8652Z" fill="white" stroke="white" stroke-width="0.4" stroke-miterlimit="10"/>
</svg>
