<svg width="57" height="55" viewBox="0 0 57 55" fill="none" xmlns="http://www.w3.org/2000/svg">
<g clip-path="url(#clip0)">
<path fill-rule="evenodd" clip-rule="evenodd" d="M35.5144 23.0584C36.3173 23.0584 36.9568 23.7125 36.9568 24.5029C36.9568 25.3069 36.3036 25.9474 35.5144 25.9474C30.9153 25.9474 26.0031 23.3173 23.2681 19.6107C22.9279 19.1474 22.6149 18.6568 22.3564 18.1662C21.921 19.8832 21.6216 21.6957 21.6216 23.3173C21.6216 24.3803 21.7441 25.3614 22.0434 26.1382C22.5605 27.4737 23.4586 27.9779 24.8329 27.9779H32.0038C34.2218 27.9779 36.0587 29.8039 36.0587 32.0388V40.6513H38.889C39.6918 40.6513 40.3313 41.3054 40.3313 42.0958C40.3313 42.8998 39.6782 43.5403 38.889 43.5403H34.6164C33.8136 43.5403 33.174 42.8862 33.174 42.0958V32.0388C33.174 31.412 32.6434 30.8805 32.0174 30.8805H24.8465C22.2748 30.8805 20.2881 29.6268 19.3492 27.1739C18.9138 26.0428 18.7369 24.7209 18.7369 23.331C18.7369 18.9838 20.5603 13.5738 22.1387 10.8347C22.5333 10.1397 23.4178 9.90801 24.1117 10.3032C24.8057 10.6984 25.037 11.5842 24.6424 12.2792C23.5674 14.1325 24.4247 16.2992 25.6085 17.9073C27.7856 20.878 31.8133 23.0584 35.5144 23.0584ZM33.2421 7.25068C34.0313 4.15727 32.2896 1.00935 29.1735 0.19171C26.0847 -0.612304 22.9687 1.14562 22.1251 4.26629C21.8666 5.24746 21.8666 6.26951 22.1251 7.25068C22.3292 8.02744 23.1184 8.47714 23.894 8.27273C24.6696 8.06832 25.1186 7.27793 24.9145 6.50117C24.7921 6.02422 24.7921 5.49275 24.9145 5.01579C25.3364 3.44865 26.9012 2.5765 28.466 2.99894C29.9764 3.42139 30.8472 4.97491 30.439 6.50117C30.2485 7.22342 29.7587 7.86391 29.1055 8.24548C28.4116 8.64067 28.1802 9.52645 28.5748 10.2078C28.983 10.9028 29.8675 11.1345 30.5615 10.7393C31.8814 9.97615 32.8611 8.73606 33.2421 7.25068ZM21.3087 40.515H9.32084C9.53855 38.212 10.2461 36.0044 11.4027 34.0012C11.7973 33.3198 11.566 32.434 10.8857 32.0252C10.1917 31.6164 9.30723 31.8617 8.91263 32.543C7.25257 35.3912 6.36811 38.6617 6.36811 41.9595C6.36811 42.7636 7.02125 43.404 7.81046 43.404H21.3087C22.1115 43.404 22.751 42.7499 22.751 41.9595C22.751 41.1692 22.1115 40.515 21.3087 40.515ZM15.9339 27.4873C16.7367 27.4873 17.3762 28.1414 17.3762 28.9318C17.3762 29.7358 16.7231 30.3763 15.9339 30.3763H4.34065C3.53784 30.3763 2.89831 29.7222 2.89831 28.9318C2.89831 28.1278 3.55144 27.4873 4.34065 27.4873H15.9339ZM13.0356 21.682C13.8384 21.682 14.4779 22.3362 14.4779 23.1265C14.4779 23.9306 13.8248 24.571 13.0356 24.571H1.44235C0.653139 24.5847 0 23.9306 0 23.1402C0 22.3362 0.653139 21.6957 1.44235 21.6957H13.0356V21.682ZM15.9339 15.8904C16.7367 15.8904 17.3762 16.5445 17.3762 17.3349C17.3762 18.1389 16.7231 18.7794 15.9339 18.7794H4.34065C3.53784 18.7794 2.89831 18.1253 2.89831 17.3349C2.89831 16.5309 3.55144 15.8904 4.34065 15.8904H15.9339ZM13.0356 10.0988C13.8384 10.0988 14.4779 10.7529 14.4779 11.5433C14.4779 12.3473 13.8248 12.9878 13.0356 12.9878H1.44235C0.653139 13.0014 0 12.3473 0 11.5433C0 10.7393 0.653139 10.0988 1.44235 10.0988H13.0356ZM8.57245 45.8842C8.77656 45.1075 9.56577 44.6578 10.3414 44.8622C11.117 45.0666 11.566 45.857 11.3619 46.6337C11.253 47.0153 11.2122 47.356 11.2122 47.7648C11.2122 50.1768 13.1444 52.1119 15.5529 52.1119C17.4034 52.1119 19.0363 50.94 19.6486 49.2093H15.5529C14.7501 49.2093 14.1105 48.5552 14.1105 47.7648C14.1105 46.9608 14.7637 46.3203 15.5529 46.3203H38.889C39.6918 46.3203 40.3313 46.9744 40.3313 47.7648C40.3313 48.5688 39.6782 49.2093 38.889 49.2093H22.6422C21.9618 52.5616 18.9955 55.0009 15.5529 55.0009C11.566 55.0009 8.32752 51.7576 8.32752 47.7512C8.32752 47.1516 8.40917 46.4838 8.57245 45.8842ZM49.0126 46.3203C49.8155 46.3203 50.455 46.9744 50.455 47.7648C50.455 48.5688 49.8019 49.2093 49.0126 49.2093C48.2098 49.2093 47.5703 48.5552 47.5703 47.7648C47.5703 46.9608 48.2098 46.3203 49.0126 46.3203ZM55.5577 43.4177C56.5238 43.4177 57.2313 42.4638 56.932 41.5371C55.6529 37.4761 51.6388 35.0232 47.5567 34.6553L46.5498 30.8805H49.5569C50.3597 30.8805 50.9993 30.2264 50.9993 29.436V21.8865C50.9993 21.0824 50.3461 20.442 49.5569 20.442C46.7403 20.442 44.8625 21.137 42.8078 23.0584H39.8551C39.0523 23.0584 38.4127 23.7125 38.4127 24.5029C38.4127 25.3069 39.0659 25.9474 39.8551 25.9474H43.3929C43.8011 25.9474 44.1685 25.7703 44.4271 25.5113C45.5429 24.3803 46.5226 23.658 48.101 23.4263V27.9779H44.6584C43.6651 27.9779 43.0255 28.9318 43.2841 29.8721L45.0258 36.4132C45.2027 37.0537 45.7878 37.4898 46.4273 37.4898C48.9446 37.4898 51.5844 38.4846 53.1764 40.515H49.0126C45.0258 40.515 41.7737 43.7584 41.7737 47.7512C41.7737 51.744 45.0122 54.9873 49.0126 54.9873C52.9995 54.9873 56.238 51.744 56.238 47.7512C56.238 47.1379 56.1428 46.4702 55.9931 45.8842C55.789 45.1075 54.9998 44.6578 54.2242 44.8622C53.4486 45.0666 52.9995 45.857 53.2036 46.6337C53.3125 47.0153 53.3533 47.356 53.3533 47.7648C53.3533 50.1632 51.4075 52.1119 49.0126 52.1119C46.6178 52.1119 44.672 50.1768 44.672 47.7648C44.672 45.3528 46.6042 43.4177 49.0126 43.4177H55.5577Z" fill="white"/>
</g>
<defs>
<clipPath id="clip0">
<rect width="57" height="55" fill="white"/>
</clipPath>
</defs>
</svg>
