<svg width="161" height="135" viewBox="0 0 161 135" fill="none" xmlns="http://www.w3.org/2000/svg">
<path fill-rule="evenodd" clip-rule="evenodd" d="M75.522 -9L75.522 129.999L81.2573 128.155L86.9568 129.999V-9H75.522Z" fill="white"/>
<path fill-rule="evenodd" clip-rule="evenodd" d="M86.478 -9V130.094L98.9998 134.796V-9H86.478Z" fill="#D3132C"/>
<path fill-rule="evenodd" clip-rule="evenodd" d="M63 -10V134.796L75.5217 130.003V-10H63Z" fill="#6DCFED"/>
<path fill-rule="evenodd" clip-rule="evenodd" d="M69.3198 33.4461C77.1675 31.492 85.3689 31.5187 93.2039 33.5239L146.617 47.1916C154.124 49.1126 159.382 55.9502 159.382 63.7889V87.6C159.382 95.2659 154.348 101.998 147.06 104.077L94.6991 119.016C85.9143 121.523 76.6199 121.556 67.8172 119.112L13.4354 104.014C6.09103 101.975 1 95.2158 1 87.5051V63.8773C1 55.9971 6.31215 49.135 13.8702 47.2535L69.3198 33.4461Z" fill="white"/>
<mask id="mask0" mask-type="alpha" maskUnits="userSpaceOnUse" x="97" y="51" width="33" height="9">
<path fill-rule="evenodd" clip-rule="evenodd" d="M129.306 51.3821L97.679 51.3821V59.7808H129.306V51.3821Z" fill="white"/>
</mask>
<g mask="url(#mask0)">
<path fill-rule="evenodd" clip-rule="evenodd" d="M103.167 51.3821C99.3173 51.3821 97.8869 53.2803 97.8048 53.3936C97.5906 53.6912 97.6562 54.1064 97.9523 54.3217C98.2459 54.5353 98.6557 54.4719 98.8711 54.1795C98.9181 54.1199 101.352 51.126 108.87 53.8878C111.499 54.8534 113.712 55.9527 115.665 56.9225C120.312 59.2299 123.983 61.0525 128.933 58.6441C129.261 58.4843 129.399 58.0869 129.24 57.7565C129.081 57.4263 128.684 57.2885 128.357 57.448C123.988 59.5739 120.91 58.045 116.251 55.7309C114.267 54.7465 112.019 53.63 109.324 52.6399C106.799 51.7123 104.773 51.3821 103.167 51.3821Z" fill="#AE995A"/>
</g>
<path fill-rule="evenodd" clip-rule="evenodd" d="M99.0572 57.3519C99.0702 57.2228 99.4075 54.485 103.907 54.0708C104.407 54.0247 104.962 54.0073 105.571 54.0253C105.856 54.0343 106.263 54.1028 106.256 54.4476C106.249 54.7624 105.876 54.7755 105.596 54.7853C105.569 54.7863 105.543 54.7872 105.518 54.7883C103.77 54.8728 102.655 55.216 101.934 55.6452C101.947 55.899 101.703 56.3399 101.596 56.5274C101.455 56.7725 101.072 56.9885 100.797 56.8626C100.792 56.8602 100.787 56.8577 100.782 56.8551C100.67 57.0883 100.611 57.3004 100.563 57.4776C100.531 57.5921 100.504 57.6921 100.468 57.7736C100.339 58.0732 99.9817 58.4794 99.5538 58.2931C99.1967 58.1376 99.0219 57.694 99.0572 57.3519Z" fill="#AE995A"/>
<mask id="mask1" mask-type="alpha" maskUnits="userSpaceOnUse" x="32" y="51" width="32" height="9">
<path fill-rule="evenodd" clip-rule="evenodd" d="M32.3062 51.3821L63.9333 51.3821V59.7808H32.3062V51.3821Z" fill="white"/>
</mask>
<g mask="url(#mask1)">
<path fill-rule="evenodd" clip-rule="evenodd" d="M58.4453 51.3821C62.295 51.3821 63.7254 53.2803 63.8075 53.3936C64.0217 53.6912 63.9561 54.1064 63.66 54.3217C63.3664 54.5353 62.9566 54.4719 62.7412 54.1795C62.6942 54.1199 60.2604 51.126 52.7421 53.8878C50.1138 54.8534 47.9003 55.9527 45.9471 56.9225C41.2999 59.2299 37.6291 61.0525 32.6794 58.6441C32.3512 58.4843 32.2131 58.0869 32.3723 57.7565C32.5315 57.4263 32.9283 57.2885 33.2553 57.448C37.6247 59.5739 40.7024 58.045 45.3616 55.7309C47.3451 54.7465 49.5929 53.63 52.2886 52.6399C54.8133 51.7123 56.8395 51.3821 58.4453 51.3821Z" fill="#AE995A"/>
</g>
<path fill-rule="evenodd" clip-rule="evenodd" d="M62.5551 57.3519C62.5421 57.2228 62.2048 54.485 57.7056 54.0708C57.205 54.0247 56.6508 54.0073 56.041 54.0253C55.7561 54.0343 55.3496 54.1028 55.3565 54.4476C55.3633 54.7624 55.7359 54.7755 56.0165 54.7853C56.0433 54.7863 56.0692 54.7872 56.0939 54.7883C57.8427 54.8728 58.9574 55.216 59.6787 55.6452C59.6655 55.899 59.9088 56.3399 60.0164 56.5274C60.1577 56.7725 60.5401 56.9885 60.8148 56.8626C60.8201 56.8602 60.8254 56.8577 60.8305 56.8551C60.9425 57.0883 61.0008 57.3004 61.0495 57.4776C61.081 57.5921 61.1085 57.6921 61.1439 57.7736C61.2733 58.0732 61.6306 58.4794 62.0585 58.2931C62.4156 58.1376 62.5904 57.694 62.5551 57.3519Z" fill="#AE995A"/>
<path fill-rule="evenodd" clip-rule="evenodd" d="M69.6719 34.4135C77.4451 32.5035 85.5688 32.5295 93.3295 34.4896L146.236 47.8498C153.671 49.7276 158.88 56.4114 158.88 64.0736V87.349C158.88 94.8424 153.894 101.423 146.675 103.455L94.8105 118.058C86.109 120.508 76.9028 120.541 68.1836 118.152L14.3174 103.394C7.04275 101.4 2 94.7935 2 87.2563V64.1601C2 56.4572 7.26177 49.7495 14.7482 47.9103L69.6719 34.4135Z" stroke="#AE995A" stroke-width="3"/>
<path fill-rule="evenodd" clip-rule="evenodd" d="M56.308 91.1799V97.5039H57.208V101.188H55.072V99.5799H51.148V101.188H49V97.5039H49.888C50.272 96.8919 50.464 96.0039 50.464 94.8399V91.1799H56.308ZM52.1201 97.5041H54.1721V93.1721H52.6001V94.8641C52.6001 95.9801 52.4441 96.8681 52.1201 97.5041ZM65.4672 98.5C64.6152 99.34 63.5832 99.76 62.3472 99.76C61.1112 99.76 60.0672 99.34 59.2152 98.5C58.3632 97.648 57.9432 96.616 57.9432 95.38C57.9432 94.144 58.3632 93.112 59.2152 92.272C60.0672 91.42 61.1112 91 62.3472 91C63.5832 91 64.6152 91.42 65.4672 92.272C66.3192 93.112 66.7512 94.144 66.7512 95.38C66.7512 96.616 66.3192 97.648 65.4672 98.5ZM60.7271 97.0241C61.1591 97.4441 61.6991 97.6601 62.3471 97.6601C62.9951 97.6601 63.5351 97.4441 63.9671 97.0241C64.3991 96.5921 64.6151 96.0401 64.6151 95.3801C64.6151 94.7201 64.3991 94.1681 63.9671 93.7481C63.5351 93.3161 62.9951 93.1001 62.3471 93.1001C61.6991 93.1001 61.1591 93.3161 60.7271 93.7481C60.2951 94.1681 60.0791 94.7201 60.0791 95.3801C60.0791 96.0401 60.2951 96.5921 60.7271 97.0241ZM72.1063 99.76C70.8463 99.76 69.7903 99.34 68.9623 98.512C68.1343 97.672 67.7263 96.628 67.7263 95.38C67.7263 94.132 68.1343 93.088 68.9623 92.26C69.7903 91.42 70.8463 91 72.1063 91C72.8623 91 73.5703 91.18 74.2183 91.54C74.8663 91.9 75.3703 92.38 75.7423 92.992L73.8823 94.06C73.5583 93.472 72.8863 93.1 72.1063 93.1C71.4343 93.1 70.8943 93.316 70.4743 93.736C70.0663 94.156 69.8623 94.696 69.8623 95.38C69.8623 96.064 70.0663 96.616 70.4743 97.036C70.8943 97.456 71.4343 97.66 72.1063 97.66C72.8863 97.66 73.5583 97.3 73.8823 96.688L75.7423 97.768C75.0103 99.004 73.6423 99.76 72.1063 99.76ZM76.3213 91.1799H82.6213V93.2559H80.5453V99.5799H78.3973V93.2559H76.3213V91.1799ZM90.5448 99.5799H88.2288L87.8688 98.3679H85.0728L84.7128 99.5799H82.3848L85.1568 91.1799H87.7728L90.5448 99.5799ZM86.4645 93.6641L85.6245 96.5201H87.3165L86.4645 93.6641ZM96.764 95.2359C97.472 95.6559 97.82 96.2799 97.82 97.1199C97.82 97.8639 97.568 98.4639 97.052 98.9079C96.536 99.3519 95.852 99.5799 95 99.5799H91.46V91.1799H94.772C96.452 91.1799 97.544 92.0919 97.544 93.5679C97.544 94.2759 97.28 94.8279 96.764 95.2359ZM94.7119 93.1001H93.6079V94.4201H94.7119C95.0959 94.4201 95.3959 94.1801 95.3959 93.7601C95.3959 93.3641 95.1079 93.1001 94.7119 93.1001ZM93.6079 97.6599H94.9399C95.3719 97.6599 95.6719 97.3719 95.6719 96.9519C95.6719 96.5199 95.3719 96.2439 94.9399 96.2439H93.6079V97.6599ZM103.163 95.2599L105.947 99.5799H103.547L101.135 95.8239V99.5799H98.9868V91.1799H101.135V94.7079L103.427 91.1799H105.827L103.163 95.2599ZM114.602 99.5799H112.286L111.926 98.3679H109.13L108.77 99.5799H106.442L109.214 91.1799H111.83L114.602 99.5799ZM110.522 93.6641L109.682 96.5201H111.374L110.522 93.6641Z" fill="#2E2F31"/>
<path fill-rule="evenodd" clip-rule="evenodd" d="M42.5 97C43.3284 97 44 96.3284 44 95.5C44 94.6716 43.3284 94 42.5 94C41.6716 94 41 94.6716 41 95.5C41 96.3284 41.6716 97 42.5 97Z" fill="#AE995A"/>
<path fill-rule="evenodd" clip-rule="evenodd" d="M120.5 97C121.328 97 122 96.3284 122 95.5C122 94.6716 121.328 94 120.5 94C119.672 94 119 94.6716 119 95.5C119 96.3284 119.672 97 120.5 97Z" fill="#AE995A"/>
<path fill-rule="evenodd" clip-rule="evenodd" d="M75.4744 110.245H72.0367V109.488L73.7923 107.681C74.1816 107.27 74.38 106.925 74.38 106.653C74.38 106.249 74.1008 105.984 73.7115 105.984C73.3222 105.984 73.0357 106.183 72.8521 106.587L72 106.087C72.3232 105.382 72.9696 105 73.6968 105C74.1596 105 74.5636 105.147 74.8941 105.441C75.2247 105.727 75.3936 106.124 75.3936 106.616C75.3936 107.152 75.1145 107.696 74.5489 108.261L73.5426 109.268H75.4744V110.245ZM78.673 110.348C78.0339 110.348 77.5271 110.105 77.1598 109.62C76.7999 109.128 76.6163 108.482 76.6163 107.674C76.6163 106.866 76.7999 106.219 77.1598 105.735C77.5271 105.242 78.0339 105 78.673 105C79.3194 105 79.8263 105.242 80.1862 105.735C80.5461 106.219 80.7298 106.866 80.7298 107.674C80.7298 108.482 80.5461 109.128 80.1862 109.62C79.8263 110.105 79.3194 110.348 78.673 110.348ZM79.7234 107.674C79.7234 106.579 79.3561 105.984 78.6729 105.984C77.9898 105.984 77.6299 106.579 77.6299 107.674C77.6299 108.768 77.9898 109.356 78.6729 109.356C79.3561 109.356 79.7234 108.761 79.7234 107.674ZM81.6145 105.58L82.9661 105.103H83.8475V110.245H82.8338V106.175L81.8642 106.447L81.6145 105.58ZM88.2875 107.571C88.7649 107.857 89 108.269 89 108.812C89 109.76 88.2948 110.348 87.1563 110.348C86.0104 110.348 85.3125 109.76 85.3125 108.812C85.3125 108.269 85.5476 107.857 86.0177 107.571C85.6578 107.314 85.4815 106.954 85.4815 106.506C85.4815 106.028 85.6431 105.661 85.959 105.397C86.2822 105.132 86.6788 105 87.1563 105C87.6337 105 88.0304 105.132 88.3462 105.397C88.6621 105.661 88.8237 106.028 88.8237 106.506C88.8237 106.961 88.6474 107.314 88.2875 107.571ZM87.6337 106.116C87.5088 106.006 87.3545 105.955 87.1562 105.955C86.9579 105.955 86.8036 106.006 86.6788 106.116C86.5539 106.227 86.4951 106.374 86.4951 106.557C86.4951 106.741 86.5539 106.895 86.6788 107.005C86.8036 107.115 86.9579 107.167 87.1562 107.167C87.3545 107.167 87.5088 107.115 87.6337 107.005C87.7585 106.895 87.8173 106.741 87.8173 106.557C87.8173 106.374 87.7585 106.227 87.6337 106.116ZM87.9936 108.68C87.9936 108.239 87.6557 107.975 87.1562 107.975C86.6567 107.975 86.3188 108.239 86.3188 108.68C86.3188 109.128 86.6567 109.393 87.1562 109.393C87.6557 109.393 87.9936 109.128 87.9936 108.68Z" fill="#2E2F31"/>
<path fill-rule="evenodd" clip-rule="evenodd" d="M81.7208 41.9999C82.3974 42.5083 82.74 44.3261 82.8935 45.4841C82.9647 46.0213 82.5391 46.4799 81.9973 46.4799C81.3711 46.4799 80.9222 47.0839 81.1028 47.6835L82.9826 53.9225C82.9941 53.9607 83.0045 53.9989 83.0115 54.0381C83.0774 54.4086 83.3164 56.4178 80.7402 56.4178C80.2227 56.8592 78.2268 60.0641 77.7093 60.5055C76.3596 61.6567 74.5187 62.445 73.5975 62.7949C73.2472 62.928 72.8568 62.833 72.5922 62.5675L72.4888 62.4637C72.2481 62.2222 72.3117 61.8148 72.6125 61.6543C73.8122 61.0145 76.435 59.5349 77.364 58.3641C78.3077 57.1748 78.7655 52.7182 78.9245 50.758C78.9673 50.2315 78.5798 49.7794 78.0546 49.8359C77.3103 49.9159 76.2618 50.1882 75.441 51.0254C74.7586 51.7213 74.4487 52.5882 74.3112 53.3044C74.1979 53.8949 73.0231 54.581 73.0231 53.9797C73.0231 51.2988 74.8932 49.6788 76.5398 48.7719C77.8657 48.0418 78.8707 46.6569 78.7089 45.152L78.5377 43.5599C78.5056 43.2614 78.6081 42.9636 78.8377 42.7704C79.4652 42.2424 80.8003 41.3081 81.7208 41.9999Z" fill="#2E2F31"/>
<path fill-rule="evenodd" clip-rule="evenodd" d="M86.4196 43C86.8221 43 87.1502 43.3144 87.1285 43.7164C87.0401 45.3492 86.4277 49.1915 82.6107 48.9926C77.7756 48.7406 82.1337 47.8035 82.1423 47.8017C82.1425 47.8016 82.142 47.8017 82.1423 47.8017C82.1508 47.7999 84.5137 47.2952 85.0998 46.494C85.4857 45.9665 85.6042 44.6231 85.6401 43.7642C85.6577 43.3438 85.9988 43 86.4196 43Z" fill="#2E2F31"/>
<path fill-rule="evenodd" clip-rule="evenodd" d="M83.2686 56.2554C83.4933 56.0964 83.783 56.0634 84.0333 56.1778C84.8863 56.5674 86.833 57.5355 87.3182 58.4562C87.7824 59.3371 87.5585 61.4082 87.4115 62.4213C87.3626 62.7583 87.0714 63 86.7309 63C86.1709 63 85.7892 62.349 85.9348 61.8083C86.1369 61.0576 86.2063 60.0506 85.6379 59.0825C85.377 58.6383 84.3438 58.1135 83.4448 57.7235C82.8472 57.4642 82.7368 56.6315 83.2686 56.2554Z" fill="#2E2F31"/>
<path fill-rule="evenodd" clip-rule="evenodd" d="M89.5181 41.9808H83.4965C83.259 41.9808 83.0664 41.7713 83.0664 41.5128C83.0664 41.2544 83.259 41.0449 83.4965 41.0449H89.5181C89.7556 41.0449 89.9482 41.2544 89.9482 41.5128C89.9482 41.7713 89.7556 41.9808 89.5181 41.9808Z" fill="#2E2F31"/>
<path fill-rule="evenodd" clip-rule="evenodd" d="M51.1036 82.28C53.1236 82.28 54.8436 81.58 56.2636 80.18C57.6836 78.76 58.3836 77.04 58.3836 75C58.3836 72.96 57.6836 71.24 56.2636 69.84C54.8436 68.42 53.1236 67.72 51.1036 67.72C49.0836 67.72 47.3636 68.42 45.9436 69.84C44.5436 71.24 43.8436 72.96 43.8436 75C43.8436 77.04 44.5436 78.76 45.9436 80.18C47.3636 81.58 49.0836 82.28 51.1036 82.28ZM26.6601 78.12C26.6601 76.54 25.9401 75.42 24.5201 74.74C25.6001 74.06 26.1401 73.06 26.1401 71.74C26.1401 70.56 25.7201 69.6 24.8601 68.86C24.0001 68.12 22.9001 67.74 21.5201 67.74C19.2601 67.74 17.6601 68.72 16.7601 70.66L18.7201 71.8C19.2001 70.54 20.1401 69.9 21.5201 69.9C23.0201 69.9 23.8401 70.66 23.8401 71.86C23.8401 73.06 22.9201 73.84 21.3401 73.84H20.1001V75.92H21.8001C23.4201 75.92 24.3601 76.74 24.3601 78C24.3601 79.28 23.4001 80.1 21.6401 80.1C19.9801 80.1 18.9601 79.36 18.5401 77.88L16.5601 79.02C17.3801 81.18 19.0801 82.26 21.6401 82.26C23.1401 82.26 24.3401 81.88 25.2601 81.12C26.2001 80.34 26.6601 79.34 26.6601 78.12ZM39.192 82H41.672L36.612 68H33.852L28.772 82H31.272L32.252 79.18H38.212L39.192 82ZM35.2317 70.7L33.0117 77.02H37.4517L35.2317 70.7ZM47.8835 78.2999C48.7435 79.1599 49.8235 79.5799 51.1035 79.5799C52.3835 79.5799 53.4635 79.1599 54.3235 78.2999C55.1835 77.4399 55.6235 76.3399 55.6235 74.9999C55.6235 73.6599 55.1835 72.5599 54.3235 71.6999C53.4635 70.8399 52.3835 70.3999 51.1035 70.3999C49.8235 70.3999 48.7435 70.8399 47.8835 71.6999C47.0235 72.5599 46.5835 73.6599 46.5835 74.9999C46.5835 76.3399 47.0235 77.4399 47.8835 78.2999ZM67.0954 73.3H64.4953V70.64H70.5354V68H61.7354V82H67.0954C68.4554 82 69.5754 81.6 70.4354 80.8C71.2954 79.98 71.7354 78.94 71.7354 77.64C71.7354 76.36 71.2954 75.32 70.4354 74.52C69.5754 73.7 68.4554 73.3 67.0954 73.3ZM64.4951 79.4199H67.0951C68.1951 79.4199 68.9951 78.7599 68.9951 77.6399C68.9951 76.5199 68.1951 75.8799 67.0951 75.8799H64.4951V79.4199ZM77.6072 79.36V76.22H82.9072V73.62H77.6072V70.64H83.4072V68H74.8472V82H83.5072V79.36H77.6072ZM103.439 68V78.54H105.039V84.68H101.459V82H86.6587V68H90.2387V78.54H93.2587V68H96.8387V78.54H99.8587V68H103.439ZM111.491 78.64V76.58H116.311V73.28H111.491V71.34H116.811V68H107.911V82H116.911V78.64H111.491ZM126.982 74.8L131.622 82H127.622L123.602 75.74V82H120.022V68H123.602V73.88L127.422 68H131.422L126.982 74.8ZM141.774 82H145.334V68H142.574L137.634 75.04V68H134.054V82H136.834L141.774 74.96V82Z" fill="#2E2F31"/>
</svg>
